<svg version="1.2" xmlns="http://www.w3.org/2000/svg" viewBox="0 0 1444 1725" width="1444" height="1725"><style>.a{fill:#fff}.b{fill:none;stroke:#e4e4e4;stroke-miterlimit:10;stroke-width:4;stroke-dasharray:32.0882,32.0882}.c{fill:#f6f5f5}.d{fill:#a9bae6}.e{fill:#e4e4e4}.f{fill:#708cd5}.g{fill:#d3dfff}.h{fill:#fff;stroke:#708cd5;stroke-miterlimit:10;stroke-width:6}.i{fill:#ee6f57}.j{fill:none;stroke:#102048;stroke-miterlimit:10;stroke-width:8}</style><path class="a" d="m1784 1837h-3000v-2000h3000z"/><path class="b" d="m1496 1145c125.3 224.2-56 664-1205.6 358.3-576.4-153.2-1007 192-1095.7-49-206.7-561.3 637.3-1210.6 1106.6-757.3 429 414.4 966.7 40 1194.7 448z"/><path class="c" d="m1489.4 1638.4h-2344.1c73.4-542 570.1-961.2 1172.1-961.2 601.9 0 1098.6 419.2 1172 961.2z"/><path class="d" d="m1183.8 1633.7h-881.6c-41.1 0-74.4-33.3-74.4-74.3v-1264.8c0-41 33.3-74.3 74.4-74.3h881.6c41.1 0 74.4 33.3 74.4 74.3v1264.8c0 41-33.3 74.3-74.4 74.3z"/><path class="c" d="m1169 277.3v1231.9h-848v-1231.9z"/><path class="e" d="m1169 277.3c0.3 480.4 15.8 1059.7-38.2 1188-237.7 23.1-515.9 30.6-809.9 31.9l111.8-1216.2z"/><path class="a" d="m1092.8 1426.5c-370.4 59.2-618 62.4-818.8 47.5 26-277 36.5-737.2 46.9-1196.7l446.4 1 404 26.7c5.9 476.8 6.6 917.3-78.5 1121.5z"/><path class="f" d="m960.3 469.3l-446.1-10.5 1.6-67.9 446.1 10.5z"/><path class="f" d="m1047.9 567.7l-402.4-9.5-0.7 31.1 402.4 9.5z"/><path class="g" d="m917.5 632.5l-273.6-6.5-0.7 31.1 273.5 6.5z"/><path class="h" d="m516.5 652.3l-95.3-2.2 2.3-95.3 95.2 2.3z"/><path class="i" d="m439 579.9c3 11.2 8.4 58.4 32 45.2 5.4-3 10.1-11.1 14.1-15.7q11-12.5 22-24.9 22-25 44-49.9c3.7-4.3-12.9-15-17.6-9.6q-19.5 22.1-39 44.3-9.8 11.1-19.6 22.2c-4.5 5.1-14.9 21.7-21.6 23.1q5.4 1.8 10.9 3.6c2.6 2.1-2.2-12.9-2.3-13.3q-2.8-10.5-5.5-20.9c-1.5-5.7-19.6-12.6-17.4-4.1z"/><path class="f" d="m972.8 739.2l-331.3-7.8-0.8 31.1 331.4 7.8z"/><path class="g" d="m1042.3 808.7l-402.4-9.5-0.8 31.1 402.4 9.5z"/><path class="h" d="m512.4 825.5l-95.2-2.2 2.2-95.3 95.3 2.2z"/><path class="i" d="m434.9 755.8c2.9 11.2 8.3 58.4 32 45.2 5.4-3.1 10-11.1 14.1-15.7q11-12.5 22-25 21.9-24.9 43.9-49.9c3.8-4.2-12.8-14.9-17.5-9.6q-19.6 22.2-39.1 44.4-9.7 11.1-19.5 22.2c-4.5 5.1-15 21.6-21.7 23.1q5.5 1.8 11 3.5c2.5 2.2-2.3-12.8-2.4-13.2q-2.7-10.5-5.4-20.9c-1.5-5.8-19.7-12.7-17.4-4.1z"/><path class="f" d="m1039.8 914.1l-402.4-9.5-0.7 31.1 402.4 9.5z"/><path class="g" d="m815.8 976.6l-180-4.2-0.7 31.1 179.9 4.2z"/><path class="h" d="m508.4 998.7l-95.3-2.2 2.2-95.3 95.3 2.2z"/><path class="i" d="m432.1 930.2c2.9 11.2 8.4 58.4 32 45.2 5.4-3 10-11.1 14.1-15.7q11-12.5 22-24.9 22-25 43.9-49.9c3.8-4.3-12.8-15-17.5-9.6q-19.5 22.1-39.1 44.3-9.7 11.1-19.5 22.2c-4.5 5.1-15 21.7-21.7 23.1q5.5 1.8 11 3.6c2.5 2.1-2.2-12.9-2.3-13.3q-2.8-10.5-5.5-20.9c-1.5-5.7-19.6-12.6-17.4-4.1z"/><path class="f" d="m1035.7 1087.2l-402.4-9.4-0.7 31.1 402.4 9.5z"/><path class="g" d="m949.6 1153.1l-317.9-7.5-0.7 31.1 317.9 7.5z"/><path class="h" d="m504.3 1171.9l-95.3-2.3 2.3-95.2 95.2 2.2z"/><path class="i" d="m428 1102.2c3 11.3 8.4 58.5 32 45.3 5.5-3.1 10.1-11.1 14.2-15.7q11-12.5 21.9-25 22-24.9 44-49.9c3.7-4.2-12.8-14.9-17.6-9.6q-19.5 22.2-39 44.4-9.8 11.1-19.5 22.1c-4.6 5.2-15 21.7-21.7 23.2q5.5 1.7 10.9 3.5c2.6 2.1-2.2-12.9-2.3-13.3q-2.7-10.4-5.4-20.8c-1.5-5.8-19.7-12.7-17.5-4.2z"/><path class="f" d="m788.8 1253.4l-159.5-3.7-0.8 31.1 159.5 3.7z"/><path class="g" d="m1030.1 1326.9l-402.4-9.4-0.8 31.1c155.7 3.6 354 10.9 394.4 4.7 6.1-7 9.4-15.5 8.8-26.4z"/><path class="h" d="m501.6 1343.8l-95.3-2.2 2.2-95.3 95.3 2.2z"/><path class="i" d="m424 1272.8c3 11.2 8.4 58.4 32 45.2 5.5-3 10.1-11.1 14.2-15.7q10.9-12.5 21.9-24.9 22-25 44-49.9c3.7-4.3-12.9-15-17.6-9.6q-19.5 22.1-39 44.3-9.8 11.1-19.6 22.2c-4.5 5.1-14.9 21.7-21.6 23.1q5.4 1.8 10.9 3.6c2.6 2.1-2.2-12.9-2.3-13.3q-2.7-10.4-5.5-20.9c-1.5-5.7-19.6-12.6-17.4-4.1z"/><path class="i" d="m934 228.9v95.1h-382v-95.1c0-15.2 6.2-28.9 16.1-38.9q1.8-1.8 3.9-3.4c9.4-7.9 21.6-12.6 34.9-12.6 10 0 19.5-2.3 28.1-6.4q5.6-2.7 10.6-6.4c10.9-8.1 19.2-19.6 23.4-33.2 4.2-14 12.9-25.7 24.2-33.8 10.8-7.8 23.9-12.2 37.9-12.2h23.8c14 0 27.1 4.4 37.9 12.2 11.3 8.1 20 19.8 24.2 33.8 4.2 13.6 12.5 25.1 23.4 33.2q5 3.7 10.6 6.4c8.6 4.1 18.1 6.4 28.1 6.4 13.3 0 25.5 4.7 34.9 12.6 12.2 10 20 25.2 20 42.3z"/><path class="e" d="m965 277.3v70.7h-444v-70.7h31v46.7h382v-46.7z"/><path class="a" d="m776.9 139c0 17.7-15.2 32.2-33.9 32.2-18.7 0-33.9-14.5-33.9-32.2 0-17.8 15.2-32.2 33.9-32.2 18.7 0 33.9 14.4 33.9 32.2z"/><path class="j" d="m-975.6 1636h2585.9"/></svg>